<svg width="30" height="30" viewBox="0 0 30 30" fill="none" xmlns="http://www.w3.org/2000/svg">
<path d="M18.125 6.875C18.125 5.69625 18.125 5.1075 18.4913 4.74125C18.8575 4.375 19.4462 4.375 20.625 4.375H24.375C25.5538 4.375 26.1425 4.375 26.5088 4.74125C26.875 5.1075 26.875 5.69625 26.875 6.875V23.125C26.875 24.3038 26.875 24.8925 26.5088 25.2588C26.1425 25.625 25.5538 25.625 24.375 25.625H20.625C19.4462 25.625 18.8575 25.625 18.4913 25.2588C18.125 24.8925 18.125 24.3038 18.125 23.125V6.875Z" stroke="#EEEFE0"/>
<path d="M20.625 21.25C20.625 20.955 20.625 20.8075 20.7162 20.7162C20.8075 20.625 20.955 20.625 21.25 20.625H23.75C24.045 20.625 24.1925 20.625 24.2838 20.7162C24.375 20.8075 24.375 20.955 24.375 21.25V22.5C24.375 22.795 24.375 22.9425 24.2838 23.0338C24.1925 23.125 24.045 23.125 23.75 23.125H21.25C20.955 23.125 20.8075 23.125 20.7162 23.0338C20.625 22.9425 20.625 22.795 20.625 22.5V21.25Z" stroke="#EEEFE0"/>
<path d="M20.625 8.125H24.375M20.625 11.875H24.375M18.125 18.125H26.875M23.125 4.375H13.125C11.9462 4.375 11.3575 4.375 10.9913 4.74125C10.625 5.1075 10.625 5.69625 10.625 6.875V23.125C10.625 24.3038 10.625 24.8925 10.9913 25.2588C11.3575 25.625 11.9462 25.625 13.125 25.625H23.125" stroke="#EEEFE0" stroke-linecap="round"/>
<path d="M16.25 20.625H13.75C13.455 20.625 13.3075 20.625 13.2162 20.7162C13.125 20.8075 13.125 20.955 13.125 21.25V22.5C13.125 22.795 13.125 22.9425 13.2162 23.0338C13.3075 23.125 13.455 23.125 13.75 23.125H16.25" stroke="#EEEFE0"/>
<path d="M13.125 7.5C12.9592 7.5 12.8003 7.56585 12.6831 7.68306C12.5658 7.80027 12.5 7.95924 12.5 8.125C12.5 8.29076 12.5658 8.44973 12.6831 8.56694C12.8003 8.68415 12.9592 8.75 13.125 8.75V7.5ZM13.125 8.75H16.25V7.5H13.125V8.75ZM13.125 11.25C12.9592 11.25 12.8003 11.3158 12.6831 11.4331C12.5658 11.5503 12.5 11.7092 12.5 11.875C12.5 12.0408 12.5658 12.1997 12.6831 12.3169C12.8003 12.4342 12.9592 12.5 13.125 12.5V11.25ZM13.125 12.5H16.25V11.25H13.125V12.5Z" fill="#EEEFE0"/>
<path d="M10.625 18.125H16.25" stroke="#EEEFE0"/>
<path d="M15.625 4.375H5.625C4.44625 4.375 3.8575 4.375 3.49125 4.74125C3.125 5.1075 3.125 5.69625 3.125 6.875V23.125C3.125 24.3038 3.125 24.8925 3.49125 25.2588C3.8575 25.625 4.44625 25.625 5.625 25.625H15.625" stroke="#EEEFE0" stroke-linecap="round"/>
<path d="M8.75 20.625H6.25C5.955 20.625 5.8075 20.625 5.71625 20.7162C5.625 20.8075 5.625 20.955 5.625 21.25V22.5C5.625 22.795 5.625 22.9425 5.71625 23.0338C5.8075 23.125 5.955 23.125 6.25 23.125H8.75" stroke="#EEEFE0"/>
<path d="M5.625 7.5C5.45924 7.5 5.30027 7.56585 5.18306 7.68306C5.06585 7.80027 5 7.95924 5 8.125C5 8.29076 5.06585 8.44973 5.18306 8.56694C5.30027 8.68415 5.45924 8.75 5.625 8.75V7.5ZM5.625 8.75H8.75V7.5H5.625V8.75ZM5.625 11.25C5.45924 11.25 5.30027 11.3158 5.18306 11.4331C5.06585 11.5503 5 11.7092 5 11.875C5 12.0408 5.06585 12.1997 5.18306 12.3169C5.30027 12.4342 5.45924 12.5 5.625 12.5V11.25ZM5.625 12.5H8.75V11.25H5.625V12.5Z" fill="#EEEFE0"/>
<path d="M3.125 18.125H8.75" stroke="#EEEFE0"/>
</svg>
