<svg width="34" height="34" viewBox="0 0 34 34" fill="none" xmlns="http://www.w3.org/2000/svg">
<path d="M8.49984 2.83334H19.8332L28.3332 11.3333V28.3333C28.3332 29.0848 28.0347 29.8055 27.5033 30.3368C26.972 30.8682 26.2513 31.1667 25.4998 31.1667H8.49984C7.74839 31.1667 7.02772 30.8682 6.49637 30.3368C5.96501 29.8055 5.6665 29.0848 5.6665 28.3333V5.66668C5.6665 4.91523 5.96501 4.19456 6.49637 3.66321C7.02772 3.13185 7.74839 2.83334 8.49984 2.83334ZM18.4165 4.95834V12.75H26.2082L18.4165 4.95834ZM9.9165 18.4167L12.0415 28.3333H14.8748L16.9998 24.0833L19.1248 28.3333H21.9582L24.0832 18.4167H25.4998V15.5833H19.8332V18.4167H21.2498L19.9748 24.3667L18.4165 21.25H15.5832L14.0248 24.3667L12.7498 18.4167H14.1665V15.5833H8.49984V18.4167H9.9165Z" fill="#01579B"/>
</svg>
