<svg width="34" height="34" viewBox="0 0 34 34" fill="none" xmlns="http://www.w3.org/2000/svg">
<path d="M20.8048 16.3094L9.04395 14.2375V29.547C9.04381 29.7134 9.07651 29.8782 9.14019 30.032C9.20387 30.1857 9.29726 30.3253 9.41502 30.4429C9.53278 30.5605 9.67259 30.6536 9.82643 30.7171C9.98027 30.7805 10.1451 30.8129 10.3115 30.8125H30.6053C30.7718 30.8132 30.9369 30.781 31.091 30.7177C31.2451 30.6544 31.3851 30.5613 31.5031 30.4437C31.6211 30.3261 31.7147 30.1863 31.7785 30.0325C31.8423 29.8786 31.8751 29.7136 31.8749 29.547V23.9062L20.8048 16.3094Z" fill="#185C37"/>
<path d="M20.8048 3.1875H10.3115C10.1451 3.18708 9.98027 3.21951 9.82643 3.28293C9.67259 3.34635 9.53278 3.43951 9.41502 3.55708C9.29726 3.67464 9.20387 3.81429 9.14019 3.96802C9.07651 4.12175 9.04381 4.28654 9.04395 4.45294V10.0938L20.8048 17L27.0321 19.0719L31.8749 17V10.0938L20.8048 3.1875Z" fill="#21A366"/>
<path d="M9.04395 10.0938H20.8048V17H9.04395V10.0938Z" fill="#107C41"/>
<path opacity="0.1" d="M17.4611 8.71249H9.04395V25.9781H17.4611C17.7965 25.9765 18.1177 25.8427 18.3552 25.6058C18.5926 25.369 18.7272 25.0481 18.7297 24.7127V9.97793C18.7272 9.64254 18.5926 9.32165 18.3552 9.08478C18.1177 8.84792 17.7965 8.71416 17.4611 8.71249Z" fill="black"/>
<path opacity="0.2" d="M16.7694 9.40314H9.04395V26.6688H16.7694C17.1048 26.6671 17.426 26.5333 17.6635 26.2965C17.9009 26.0596 18.0355 25.7387 18.038 25.4033V10.6686C18.0355 10.3332 17.9009 10.0123 17.6635 9.77543C17.426 9.53856 17.1048 9.4048 16.7694 9.40314Z" fill="black"/>
<path opacity="0.2" d="M16.7694 9.40314H9.04395V25.2875H16.7694C17.1048 25.2858 17.426 25.1521 17.6635 24.9152C17.9009 24.6784 18.0355 24.3575 18.038 24.0221V10.6686C18.0355 10.3332 17.9009 10.0123 17.6635 9.77543C17.426 9.53856 17.1048 9.4048 16.7694 9.40314Z" fill="black"/>
<path opacity="0.2" d="M16.0777 9.40314H9.04395V25.2875H16.0777C16.4131 25.2858 16.7343 25.1521 16.9718 24.9152C17.2092 24.6784 17.3438 24.3575 17.3463 24.0221V10.6686C17.3438 10.3332 17.2092 10.0123 16.9718 9.77543C16.7343 9.53856 16.4131 9.4048 16.0777 9.40314Z" fill="black"/>
<path d="M3.39363 9.40311H16.0777C16.4137 9.40283 16.7361 9.53596 16.974 9.77325C17.2119 10.0105 17.3458 10.3326 17.3464 10.6686V23.3314C17.3458 23.6674 17.2119 23.9894 16.974 24.2267C16.7361 24.464 16.4137 24.5971 16.0777 24.5969H3.39363C3.22714 24.5974 3.06218 24.5651 2.90822 24.5017C2.75426 24.4384 2.61432 24.3452 2.49645 24.2277C2.37858 24.1101 2.28509 23.9704 2.22134 23.8166C2.1576 23.6628 2.12486 23.4979 2.125 23.3314V10.6686C2.12486 10.5021 2.1576 10.3372 2.22134 10.1834C2.28509 10.0296 2.37858 9.88989 2.49645 9.77231C2.61432 9.65473 2.75426 9.56159 2.90822 9.49824C3.06218 9.43488 3.22714 9.40255 3.39363 9.40311Z" fill="url(#paint0_linear_63_1492)"/>
<path d="M6.05615 21.1151L8.72409 16.9883L6.28034 12.8849H8.24278L9.57622 15.5125C9.69947 15.7611 9.78872 15.946 9.82909 16.0693H9.84715C9.93428 15.8702 10.0264 15.6768 10.1234 15.4891L11.5493 12.8892H13.3555L10.8491 16.9692L13.4193 21.1183H11.4972L9.95659 18.2378C9.88526 18.1139 9.82448 17.9841 9.7749 17.85H9.7494C9.70437 17.9807 9.64448 18.1059 9.5709 18.2229L7.98459 21.1151H6.05615Z" fill="white"/>
<path d="M30.6063 3.18751H20.8047V10.0938H31.8749V4.45294C31.875 4.28646 31.8423 4.12158 31.7785 3.96778C31.7148 3.81398 31.6213 3.67428 31.5034 3.5567C31.3856 3.43913 31.2456 3.34599 31.0917 3.28263C30.9377 3.21927 30.7727 3.18695 30.6063 3.18751Z" fill="#33C481"/>
<path d="M20.8047 17H31.8749V23.9062H20.8047V17Z" fill="#107C41"/>
<defs>
<linearGradient id="paint0_linear_63_1492" x1="4.77487" y1="8.40861" x2="14.6965" y2="25.5914" gradientUnits="userSpaceOnUse">
<stop stop-color="#18884F"/>
<stop offset="0.5" stop-color="#117E43"/>
<stop offset="1" stop-color="#0B6631"/>
</linearGradient>
</defs>
</svg>
