<svg width="24" height="30" viewBox="0 0 24 30" fill="none" xmlns="http://www.w3.org/2000/svg">
<path d="M13.4165 10.75H21.2082L13.4165 2.95834V10.75ZM3.49984 0.833344H14.8332L23.3332 9.33334V26.3333C23.3332 27.0848 23.0347 27.8055 22.5033 28.3368C21.972 28.8682 21.2513 29.1667 20.4998 29.1667H3.49984C2.74839 29.1667 2.02772 28.8682 1.49637 28.3368C0.965015 27.8055 0.666504 27.0848 0.666504 26.3333V3.66668C0.666504 2.91523 0.965015 2.19456 1.49637 1.66321C2.02772 1.13185 2.74839 0.833344 3.49984 0.833344ZM10.484 15.6233C11.0648 16.8983 11.8015 17.9467 12.6515 18.6692L13.2323 19.1225C11.9998 19.3492 10.2998 19.7458 8.50067 20.44L8.34484 20.4967L9.05317 19.0233C9.69067 17.7908 10.1582 16.6717 10.484 15.6233ZM19.664 21.0208C19.919 20.7658 20.0465 20.44 20.0607 20.0858C20.1032 19.8025 20.0323 19.5333 19.8907 19.3067C19.4798 18.6408 18.4173 18.3292 16.6607 18.3292L14.8332 18.4283L13.6007 17.6067C12.7082 16.87 11.9007 15.5808 11.334 13.98L11.3907 13.7817C11.8582 11.8975 12.2973 9.61668 11.3623 8.68168C11.248 8.57062 11.1127 8.48339 10.9643 8.42502C10.816 8.36666 10.6575 8.33833 10.4982 8.34168H10.1582C9.634 8.34168 9.1665 8.89418 9.039 9.43251C8.51484 11.3167 8.8265 12.3508 9.35067 14.065V14.0792C8.9965 15.3258 8.54317 16.7708 7.82067 18.23L6.46067 20.78L5.19984 21.4742C3.49984 22.5367 2.69234 23.7267 2.5365 24.4775C2.47984 24.7467 2.50817 24.9875 2.60734 25.2425L2.64984 25.3133L3.32984 25.7525L3.95317 25.9083C5.10067 25.9083 6.404 24.5625 8.16067 21.5592L8.41567 21.46C9.87484 20.9925 11.6882 20.6667 14.1248 20.3975C15.584 21.12 17.2982 21.4458 18.3748 21.4458C18.9982 21.4458 19.4232 21.29 19.664 21.0208ZM19.0832 20.015L19.2107 20.1708C19.1965 20.3125 19.154 20.3267 19.0832 20.355H19.0265L18.7573 20.3833C18.1057 20.3833 17.0998 20.1142 16.0657 19.6608C16.1932 19.5192 16.2498 19.5192 16.3915 19.5192C18.3748 19.5192 18.9415 19.8733 19.0832 20.015ZM6.09234 22.0833C5.1715 23.7692 4.33567 24.7042 3.69817 24.9167C3.769 24.3783 4.4065 23.4433 5.41234 22.5225L6.09234 22.0833ZM10.3707 12.2942C10.0448 11.0192 10.0307 9.98501 10.2715 9.39001L10.3707 9.22001L10.5832 9.29084C10.824 9.63084 10.8523 10.0842 10.7107 10.8492L10.6682 11.0758L10.4415 12.2375L10.3707 12.2942Z" fill="#EF5350"/>
</svg>
