<svg width="34" height="34" viewBox="0 0 34 34" fill="none" xmlns="http://www.w3.org/2000/svg">
<path d="M19.6945 2.46606V5.508C23.307 5.52819 27.5113 5.47081 31.1206 5.525C31.8028 5.525 31.8325 6.1285 31.841 6.6555C31.8984 12.9689 31.8272 19.4639 31.875 25.7805C31.8622 26.0291 31.8686 26.9492 31.8612 27.2106C31.8378 28.0851 31.4001 28.1233 30.5256 28.1499C30.3854 28.1499 29.9731 28.1562 29.8371 28.1626C26.4573 28.1456 23.0775 28.1531 19.6945 28.1531V31.5339L2.125 28.8299V5.17756L19.6945 2.46606Z" fill="#D33922"/>
<path d="M19.6946 6.52164H30.8508V27.1341H19.6946V24.4375H27.8057V23.0828H19.6946V21.3934H27.8057V20.0419H19.6978C19.6992 19.3789 19.6971 18.7167 19.6914 18.0551C20.3551 18.2943 21.0637 18.3826 21.7657 18.3137C22.4678 18.2448 23.1457 18.0203 23.7502 17.6566C24.3663 17.252 24.8767 16.7058 25.2388 16.0637C25.6009 15.4216 25.8041 14.7022 25.8316 13.9655C24.3441 13.9549 22.864 13.9591 21.384 13.9591C21.384 12.4886 21.401 11.0192 21.3532 9.55189C20.7985 9.65814 20.245 9.77501 19.6935 9.89295V6.5227" fill="white"/>
<path d="M22.0637 8.84424C23.2162 8.91645 24.3031 9.40554 25.1215 10.2202C25.9399 11.0349 26.4339 12.1195 26.5114 13.2717C25.0239 13.2887 23.5438 13.2823 22.0605 13.2823V8.84424" fill="#D33922"/>
<path d="M7.54351 11.3964C9.37845 11.4846 11.6023 10.6696 13.1238 12.0456C14.5804 13.8136 14.1948 17.0648 12.0358 18.122C11.2507 18.4328 10.3997 18.5396 9.56226 18.4322C9.56226 19.754 9.55588 21.0757 9.56226 22.3964C8.89147 22.3383 8.22103 22.282 7.55095 22.2275C7.52013 18.615 7.51376 15.0025 7.55095 11.39" fill="white"/>
<path d="M9.55485 13.2239C10.221 13.1931 11.0424 13.0719 11.495 13.6967C11.6766 14.0367 11.7752 14.4148 11.7828 14.8002C11.7904 15.1856 11.7067 15.5673 11.5385 15.9141C11.1529 16.6101 10.2816 16.5431 9.60904 16.6239C9.53785 15.4912 9.54529 14.3597 9.55485 13.2239Z" fill="#D33922"/>
</svg>
